<?xml version="1.0" encoding="UTF-8"?>
<svg xmlns="http://www.w3.org/2000/svg" xmlns:xlink="http://www.w3.org/1999/xlink" width="28px" height="28px" viewBox="0 0 24 28" version="1.1">
<g id="surface1">
<path style=" stroke:none;fill-rule:nonzero;fill:rgb(100%,100%,100%);fill-opacity:1;" d="M 23.507812 21.820312 C 23.074219 22.796875 22.566406 23.699219 21.972656 24.527344 C 21.167969 25.65625 20.507812 26.4375 20 26.871094 C 19.210938 27.582031 18.367188 27.949219 17.460938 27.96875 C 16.8125 27.96875 16.03125 27.785156 15.117188 27.417969 C 14.203125 27.050781 13.363281 26.871094 12.597656 26.871094 C 11.789062 26.871094 10.925781 27.050781 10 27.417969 C 9.074219 27.785156 8.328125 27.980469 7.757812 27.996094 C 6.890625 28.035156 6.027344 27.660156 5.164062 26.871094 C 4.613281 26.398438 3.925781 25.589844 3.101562 24.445312 C 2.214844 23.21875 1.488281 21.800781 0.917969 20.183594 C 0.304688 18.4375 0 16.746094 0 15.105469 C 0 13.230469 0.414062 11.613281 1.238281 10.253906 C 1.890625 9.164062 2.753906 8.304688 3.835938 7.675781 C 4.917969 7.042969 6.085938 6.722656 7.34375 6.703125 C 8.035156 6.703125 8.9375 6.910156 10.058594 7.324219 C 11.179688 7.734375 11.898438 7.945312 12.214844 7.945312 C 12.449219 7.945312 13.246094 7.699219 14.601562 7.210938 C 15.878906 6.761719 16.960938 6.574219 17.847656 6.648438 C 20.242188 6.835938 22.046875 7.765625 23.242188 9.4375 C 21.097656 10.714844 20.039062 12.503906 20.058594 14.796875 C 20.078125 16.582031 20.738281 18.070312 22.035156 19.25 C 22.621094 19.796875 23.277344 20.222656 24.007812 20.523438 C 23.851562 20.972656 23.683594 21.40625 23.507812 21.820312 Z M 18.007812 0.558594 C 18.007812 1.960938 17.484375 3.269531 16.445312 4.476562 C 15.195312 5.917969 13.679688 6.75 12.035156 6.617188 C 12.015625 6.449219 12.003906 6.273438 12.003906 6.085938 C 12.003906 4.742188 12.597656 3.304688 13.65625 2.128906 C 14.183594 1.53125 14.855469 1.035156 15.671875 0.640625 C 16.484375 0.253906 17.253906 0.0351562 17.976562 0 C 17.996094 0.1875 18.007812 0.375 18.007812 0.558594 Z M 18.007812 0.558594 "/>
</g>
</svg>
